HIERARCHY
ROOT hip
{
	OFFSET 0.000000 0.000000 0.000000
	CHANNELS 6 Xposition Yposition Zposition Zrotation Yrotation Xrotation 
	JOINT lhipjoint
	{
		OFFSET 0.000000 0.000000 0.000000
		CHANNELS 3 Zrotation Yrotation Xrotation
		JOINT lfemur
		{
			OFFSET 1.363060 -1.794630 0.839290
			CHANNELS 3 Zrotation Yrotation Xrotation
			JOINT ltibia
			{
				OFFSET 2.448110 -6.726130 0.000000
				CHANNELS 3 Zrotation Yrotation Xrotation
				JOINT lfoot
				{
					OFFSET 2.562200 -7.039590 0.000000
					CHANNELS 3 Zrotation Yrotation Xrotation
					JOINT ltoes
					{
						OFFSET 0.157640 -0.433110 2.322550
						CHANNELS 3 Zrotation Yrotation Xrotation
						End Site
						{
							OFFSET 0.000000 0.000000 0.000000
						}
					}
				}
			}
		}
	}
	JOINT rhipjoint
	{
		OFFSET 0.000000 0.000000 0.000000
		CHANNELS 3 Zrotation Yrotation Xrotation
		JOINT rfemur
		{
			OFFSET -1.305520 -1.794630 0.839290
			CHANNELS 3 Zrotation Yrotation Xrotation
			JOINT rtibia
			{
				OFFSET -2.542530 -6.985550 0.000000
				CHANNELS 3 Zrotation Yrotation Xrotation
				JOINT rfoot
				{
					OFFSET -2.568260 -7.056230 0.000000
					CHANNELS 3 Zrotation Yrotation Xrotation
					JOINT rtoes
					{
						OFFSET -0.164730 -0.452590 2.363150
						CHANNELS 3 Zrotation Yrotation Xrotation
						End Site
						{
							OFFSET 0.000000 0.000000 0.000000
						}
					}
				}
			}
		}
	}
	JOINT lowerback
	{
		OFFSET 0.000000 0.000000 0.000000
		CHANNELS 3 Zrotation Yrotation Xrotation
		JOINT upperback
		{
			OFFSET 0.028270 2.035590 -0.193380
			CHANNELS 3 Zrotation Yrotation Xrotation
			JOINT thorax
			{
				OFFSET 0.056720 2.048850 -0.042750
				CHANNELS 3 Zrotation Yrotation Xrotation
				JOINT lowerneck
				{
					OFFSET 0.000000 0.000000 0.000000
					CHANNELS 3 Zrotation Yrotation Xrotation
					JOINT upperneck
					{
						OFFSET -0.054170 1.746240 0.172020
						CHANNELS 3 Zrotation Yrotation Xrotation
						JOINT head
						{
							OFFSET 0.104070 1.761360 -0.123970
							CHANNELS 3 Zrotation Yrotation Xrotation
							End Site
							{
								OFFSET 0.000000 0.000000 0.000000
							}
						}
					}
				}
				JOINT lclavicle
				{
					OFFSET 0.000000 0.000000 0.000000
					CHANNELS 3 Zrotation Yrotation Xrotation
					JOINT lhumerus
					{
						OFFSET 3.362410 1.200890 -0.311210
						CHANNELS 3 Zrotation Yrotation Xrotation
						JOINT lradius
						{
							OFFSET 4.983000 -0.000000 -0.000000
							CHANNELS 3 Zrotation Yrotation Xrotation
							JOINT lwrist
							{
								OFFSET 3.483560 -0.000000 -0.000000
								CHANNELS 3 Zrotation Yrotation Xrotation
								JOINT lhand
								{
									OFFSET 0.000000 0.000000 0.000000
									CHANNELS 3 Zrotation Yrotation Xrotation
									JOINT lfingers
									{
										OFFSET 0.715260 -0.000000 -0.000000
										CHANNELS 3 Zrotation Yrotation Xrotation
										End Site
										{
											OFFSET 0.000000 0.000000 0.000000
										}
									}
								}
								JOINT lthumb
								{
									OFFSET 0.000000 0.000000 0.000000
									CHANNELS 3 Zrotation Yrotation Xrotation
									End Site
									{
										OFFSET 0.000000 0.000000 0.000000
									}
								}
							}
						}
					}
				}
				JOINT rclavicle
				{
					OFFSET 0.000000 0.000000 0.000000
					CHANNELS 3 Zrotation Yrotation Xrotation
					JOINT rhumerus
					{
						OFFSET -3.136600 1.374050 -0.404650
						CHANNELS 3 Zrotation Yrotation Xrotation
						JOINT rradius
						{
							OFFSET -5.241900 -0.000000 -0.000000
							CHANNELS 3 Zrotation Yrotation Xrotation
							JOINT rwrist
							{
								OFFSET -3.444170 -0.000000 -0.000000
								CHANNELS 3 Zrotation Yrotation Xrotation
								JOINT rhand
								{
									OFFSET 0.000000 0.000000 0.000000
									CHANNELS 3 Zrotation Yrotation Xrotation
									JOINT rfingers
									{
										OFFSET -0.622530 -0.000000 -0.000000
										CHANNELS 3 Zrotation Yrotation Xrotation
										End Site
										{
											OFFSET 0.000000 0.000000 0.000000
										}
									}
								}
								JOINT rthumb
								{
									OFFSET 0.000000 0.000000 0.000000
									CHANNELS 3 Zrotation Yrotation Xrotation
									End Site
									{
										OFFSET 0.000000 0.000000 0.000000
									}
								}
							}
						}
					}
				}
			}
		}
	}
}
MOTION
Frames: 6
Frame Time: 0.008333
2.443761 17.924532 5.275358 -173.631061 -14.591244 166.739071 -1.698787 2.826974 2.023434 -10.304476 2.008967 7.398300 0.711102 5.180175 16.076164 0.782202 -3.757058 3.307150 0.600900 -4.962100 -13.800500 0.369397 -4.203707 1.444245 23.183772 2.227581 8.733437 -1.625656 -5.967972 21.077220 3.271497 -15.081342 -5.796026 -0.367500 3.893900 -10.778400 2.513183 0.288944 14.127202 1.362947 -0.606132 -2.256169 3.877767 -0.324887 6.929150 -5.973936 -7.456005 -10.188584 -0.889068 -8.825835 6.234801 3.447900 -4.136900 3.867400 0.574244 3.673031 0.928389 -81.178591 -15.284840 60.818448 50.858978 -61.368875 -22.457599 0.168913 1.120159 83.630501 12.482833 9.551733 2.213800 -7.125000 0.000000 0.000000 -11.577600 39.195300 1.682300 1.072523 -1.061886 2.316934 70.237318 11.497488 50.445952 -106.176042 55.680410 -58.976524 0.671878 -0.239539 171.659605 -9.860279 -2.068214 0.392200 7.125000 0.000000 0.000000 13.922500 -32.208600 4.474800 
2.429104 17.925352 5.283147 -173.617271 -14.512542 166.785128 -1.703586 2.821710 2.015979 -10.321016 2.086171 7.314746 0.714350 5.185375 16.101310 0.784553 -3.775712 3.321864 0.570500 -4.837100 -13.444400 0.369101 -4.204810 1.442198 23.135788 2.258879 8.650408 -1.625497 -5.977367 21.094422 3.253544 -15.005023 -5.728535 -0.370600 3.910300 -10.824500 2.584024 0.309292 14.177774 1.363383 -0.588128 -2.238381 3.911499 -0.314266 7.003886 -6.071088 -7.441187 -10.287116 -0.984433 -8.826917 6.662289 3.400900 -4.182100 4.108400 0.537002 3.639119 0.913621 -81.004088 -15.423201 60.462611 51.449118 -61.569293 -22.863206 0.182017 1.101193 83.381146 12.473679 9.175935 2.116000 -7.125000 0.000000 0.000000 -11.526200 38.801700 1.788000 1.145053 -1.106507 2.277237 69.206120 11.596856 50.368874 -107.067838 55.373496 -60.276061 0.634330 -0.062296 170.868405 -11.205951 -1.864681 0.380800 7.125000 0.000000 0.000000 12.794100 -31.878100 4.199500 
2.414242 17.926787 5.289194 -173.638215 -14.423127 166.846631 -1.710206 2.817951 2.007704 -10.367197 2.206121 7.221060 0.717225 5.185720 16.117586 0.787723 -3.802904 3.336906 0.556700 -4.779500 -13.280600 0.368901 -4.204814 1.440004 23.045118 2.284937 8.544683 -1.627232 -5.993586 21.129597 3.227493 -14.895351 -5.642075 -0.378400 3.950700 -10.937900 2.602600 0.323787 14.214902 1.365731 -0.581061 -2.220785 3.977128 -0.314236 7.070391 -6.191961 -7.430975 -10.326247 -1.076572 -8.825280 7.034410 3.364100 -4.222400 4.306000 0.497867 3.611297 0.902573 -80.829342 -15.596711 60.107012 52.118492 -61.798052 -23.317947 0.202027 1.082335 83.495325 12.497667 8.880723 2.043000 -7.125000 0.000000 0.000000 -11.462700 38.490800 1.866800 1.217406 -1.146547 2.240812 68.206702 11.690513 50.372407 -108.155006 55.013132 -61.762766 0.548271 0.072030 170.262562 -12.432162 -2.036087 0.434500 7.125000 0.000000 0.000000 11.779500 -31.943600 3.834300 
2.398561 17.927095 5.294114 -173.623822 -14.285336 166.889133 -1.715070 2.815128 2.000914 -10.366004 2.346430 7.145430 0.720434 5.188836 16.137736 0.791392 -3.830764 3.338476 0.529300 -4.662200 -12.947500 0.367872 -4.205537 1.437384 22.987707 2.293653 8.446088 -1.630359 -6.011611 21.176485 3.189494 -14.738349 -5.555087 -0.383200 3.975600 -11.007900 2.689905 0.352360 14.264891 1.365700 -0.550311 -2.201605 3.979470 -0.295917 7.124812 -6.257681 -7.438409 -10.324252 -1.186023 -8.848981 7.365235 3.310000 -4.272400 4.468500 0.455983 3.585816 0.893993 -80.573391 -15.663272 59.674780 53.144308 -62.151115 -24.007280 0.244097 1.059582 84.059184 12.695026 8.683161 2.015300 -7.125000 0.000000 0.000000 -11.272800 38.274600 1.895700 1.282489 -1.176656 2.211371 67.440920 11.769476 50.254091 -109.321051 54.634828 -63.290046 0.418028 0.151646 170.091648 -13.439471 -2.696414 0.605800 7.125000 0.000000 0.000000 10.963600 -32.537400 3.399900 
2.382777 17.927915 5.297496 -173.631602 -14.139528 166.959797 -1.721121 2.812362 1.993358 -10.394457 2.470380 7.056057 0.724041 5.192449 16.160225 0.791345 -3.833625 3.323287 0.504200 -4.551700 -12.634300 0.367437 -4.204291 1.434272 22.908705 2.320974 8.321910 -1.634247 -6.033810 21.233845 3.147368 -14.566645 -5.486187 -0.380000 3.958800 -10.960900 2.736778 0.377470 14.280173 1.366416 -0.526562 -2.182352 4.003754 -0.284130 7.184082 -6.356974 -7.448879 -10.279846 -1.262243 -8.874753 7.653890 3.284500 -4.319400 4.602600 0.404763 3.562322 0.890144 -80.273795 -15.571384 58.996547 54.571151 -62.630108 -24.971140 0.309057 1.031866 85.166072 13.023613 8.560267 2.020200 -7.125000 0.000000 0.000000 -10.986600 38.127300 1.886500 1.345286 -1.202367 2.184553 66.726597 11.821659 50.109924 -110.675820 54.195761 -64.997900 0.258551 0.144116 170.388569 -13.943887 -3.834880 0.908400 7.125000 0.000000 0.000000 10.582800 -33.685500 2.979500 
2.365353 17.928119 5.302006 -173.619924 -13.929051 167.027189 -1.726056 2.809876 1.985208 -10.399586 2.626022 6.965463 0.729272 5.200737 16.195321 0.789514 -3.823005 3.279662 0.484600 -4.464000 -12.385800 0.367682 -4.202896 1.430766 22.848567 2.369312 8.194237 -1.638949 -6.058951 21.299676 3.098713 -14.365013 -5.379986 -0.384300 3.980800 -11.022800 2.854559 0.420328 14.299749 1.362039 -0.476319 -2.158866 3.975021 -0.251651 7.242701 -6.474231 -7.498241 -10.182414 -1.324390 -8.945338 7.873286 3.280000 -4.382000 4.694900 0.347775 3.546634 0.891852 -79.960168 -15.407570 58.169792 56.246686 -63.161053 -26.113275 0.390904 1.005610 86.638891 13.453482 8.628275 2.084100 -7.125000 0.000000 0.000000 -10.643500 38.165400 1.815800 1.400376 -1.215251 2.165596 66.111861 11.781167 49.815618 -112.242681 53.685556 -66.942935 0.099357 0.058882 171.122761 -13.936128 -5.270545 1.285300 7.125000 0.000000 0.000000 10.666400 -35.199000 2.605200 
